OpenSim_Sub10_EMGBaseline_GRF.mot
version=1
nRows=47
nColumns=19
inDegrees=no
endheader
time	lFx	lFy	lFz	lCOPx	lCOPy	lCOPz	rFx	rFy	rFz	rCOPx	rCOPy	rCOPz	lMx	lMy	lMz	rMx	rMy	rMz
20.50000000	2.83914539	0.38915482	2.31803371	0.00003862	0	-0.00002163	-37.02766999	609.87863675	-51.58015293	0.87604386	0	-0.39739282	0	0.00002669	0	0	-2.59175216	0
20.51000000	2.77027881	0.28898362	2.25822436	-0.00001545	0	0.00001775	-33.49119206	620.64008636	-52.04115142	0.86944956	0	-0.39770276	0	-0.00001328	0	0	-2.47180764	0
20.52000000	2.74869415	0.22059191	2.22200919	-0.00002265	0	0.00002002	-30.04557817	630.52481893	-52.17670915	0.86284124	0	-0.39791829	0	-0.00001775	0	0	-2.35435547	0.00000000
20.53000000	2.76007444	0.22903451	2.20092502	-0.00001420	0	0.00001147	-27.06094775	638.09140581	-52.21880810	0.85630370	0	-0.39807134	0	-0.00001081	0	0	-2.22134376	0
20.54000000	2.79785235	0.29992341	2.19803227	-0.00000548	0	0.00000397	-24.69584124	642.17868486	-52.37957146	0.84984270	0	-0.39820267	0	-0.00000403	0	0	-2.03947349	0
20.55000000	2.83946201	0.40248892	2.20853529	-0.00000067	0	0.00000018	-22.81179163	642.51247926	-52.57818243	0.84363611	0	-0.39829609	0	-0.00000038	0	0	-1.87614567	0
20.56000000	2.84894161	0.46423493	2.18420111	0.00000090	0	-0.00000090	-21.12795739	639.59143181	-52.56993669	0.83776563	0	-0.39835077	0	0.00000076	0	0	-1.73394472	0
20.57000000	2.83755790	0.43353736	2.17268683	0.00000089	0	-0.00000077	-19.37042035	634.21105600	-52.21028340	0.83201741	0	-0.39841315	0	0.00000066	0	0	-1.53746078	0.00000000
20.58000000	2.83188480	0.36641093	2.16315462	0.00000045	0	-0.00000036	-17.32739170	627.34742032	-51.52327279	0.82614174	0	-0.39848968	0	0.00000015	0	0	-1.30105878	-0.00000000
20.59000000	2.81668918	0.34556122	2.16480349	0.00000007	0	-0.00000005	-14.84109067	620.04245692	-50.62753265	0.82004606	0	-0.39856226	0	-0.00000041	0	0	-1.08984771	0
20.60000000	2.78163842	0.36532946	2.19155615	-0.00000012	0	0.00000009	-12.10186058	613.22659974	-49.70349036	0.81404908	0	-0.39856158	0	-0.00000077	0	0	-0.87785003	0
20.61000000	2.70355981	0.39946099	2.22736681	-0.00000006	0	0.00000005	-9.48345041	607.33976401	-48.79646905	0.80852501	0	-0.39845214	0	-0.00000041	0	0	-0.68962162	-0.00000000
20.62000000	2.60481214	0.41820848	2.24112473	0.00000035	0	-0.00000023	-7.25250735	602.30096435	-48.01093878	0.80358157	0	-0.39825883	0	0.00000176	0	0	-0.55601989	0
20.63000000	2.53709407	0.46160046	2.25645296	0.00000122	0	-0.00000081	-5.46053221	597.80802520	-47.43824644	0.79896283	0	-0.39802363	0	0.00000685	0	0	-0.42136742	0
20.64000000	2.52107626	0.53968193	2.31103730	0.00000232	0	-0.00000154	-4.10842044	593.79649164	-46.88600098	0.79446542	0	-0.39771372	0	0.00001422	0	0	-0.24868418	0.00000000
20.65000000	2.51494446	0.60559361	2.35826381	0.00000242	0	-0.00000161	-3.04824917	590.69027854	-46.22426297	0.79010333	0	-0.39732237	0	0.00001749	0	0	-0.07868739	0
20.66000000	2.50158700	0.65890729	2.40353121	-0.00000143	0	0.00000095	-1.96968831	589.02496127	-45.62617890	0.78585476	0	-0.39688868	0	-0.00000041	0	0	0.08630011	0
20.67000000	2.47409170	0.70514297	2.45216180	-0.00001355	0	0.00000899	-0.65021666	588.96700837	-45.20906371	0.78150405	0	-0.39638877	0	-0.00006759	0	0	0.27341093	0
20.68000000	2.45464947	0.70619579	2.47649433	-0.00003600	0	0.00002389	0.97437569	590.30398124	-45.07453929	0.77697528	0	-0.39581435	0	-0.00020518	0	0	0.44571512	0.00000000
20.69000000	2.44723955	0.57021745	2.52768744	-0.00005877	0	0.00003900	2.83791879	592.65028376	-45.28095598	0.77228524	0	-0.39520867	0	-0.00037134	0	0	0.60993238	0
20.70000000	2.43728129	0.37796193	2.56267447	-0.00004324	0	0.00002871	4.88498704	595.74598069	-45.68776943	0.76745621	0	-0.39459333	0	-0.00035785	0	0	0.80304341	0
20.71000000	2.41284433	0.26800047	2.56922192	0.00009058	0	-0.00006007	7.04330573	599.64716428	-46.27315592	0.76255590	0	-0.39399237	0	0.00031346	0	0	1.00257404	0
20.72000000	2.37827361	0.24100328	2.60696947	0.00044104	0	-0.00029262	9.31104752	604.45643817	-47.01258379	0.75749975	0	-0.39339387	0	0.00231576	0	0	1.17805127	-0.00000000
20.73000000	2.33686549	0.26724709	2.63741239	0.00100559	0	-0.00066730	11.60951331	610.13333162	-47.77719885	0.75237646	0	-0.39280532	0	0.00589499	0	0	1.35695835	0
20.74000000	2.31394473	0.28658758	2.67227560	0.00140360	0	-0.00093160	13.83771879	616.51770928	-48.54885471	0.74730145	0	-0.39224823	0	0.00925085	0	0	1.56498612	0
20.75000000	2.32211735	0.20362407	2.72720210	0.00048034	0	-0.00031933	15.99556697	623.37845316	-49.32786332	0.74229009	0	-0.39169920	0	0.00594400	0	0	1.76893275	0.00000000
20.76000000	2.34430569	-0.14087040	2.80042299	-0.00385299	0	0.00255574	18.28448184	630.40274788	-50.20092213	0.73714580	0	-0.39116905	0	-0.01689626	0	0	1.99034921	0
20.77000000	2.29832765	-0.90544461	2.90601244	-0.01360718	0	0.00902850	20.87952797	637.54990698	-51.24901185	0.73195845	0	-0.39068250	0	-0.07422226	0	0	2.25008911	0
20.78000000	2.10029155	-1.85175513	3.04871084	-0.02701241	0	0.01792588	23.72229324	644.89261839	-52.42613036	0.72679594	0	-0.39019885	0	-0.16296711	0	0	2.47089122	0
20.79000000	1.66297657	-1.86887568	3.11255098	-0.03103045	0	0.02059781	26.78074986	652.39261051	-53.84708420	0.72159394	0	-0.38967912	0	-0.21705203	0	0	2.65836543	0.00000000
20.80000000	1.05944702	1.62604888	2.72318522	0.00750995	0	-0.00496691	30.00641665	659.88336845	-55.59560736	0.71627116	0	-0.38911306	0	-0.04598047	0	0	2.85581585	0
20.81000000	0.93091373	12.42686201	1.44275467	0.14063570	0	-0.09329756	33.31653655	667.12284985	-57.46324163	0.71081967	0	-0.38850663	0	0.68238757	0	0	2.98973179	0
20.82000000	2.58076761	33.06959114	-0.75816255	0.40170848	0	-0.26655048	36.45191366	673.92326535	-59.31135170	0.70534041	0	-0.38792614	0	2.26168243	0	0	3.01137489	0
20.83000000	5.40862829	62.90519241	-3.03004909	0.70573015	0	-0.46872264	39.39205009	680.07315036	-61.04488504	0.70008137	0	-0.38746981	0	4.42000348	0	0	2.99480159	0
20.84000000	6.10557613	99.09319885	-4.66915579	0.89954649	0	-0.60089935	42.22628471	685.20103023	-62.38855151	0.69507071	0	-0.38713713	0	6.51748025	0	0	2.97183424	0.00000000
20.85000000	2.73636274	139.22330218	-3.98876101	0.97323445	0	-0.65512352	45.05386517	688.58300476	-63.20625764	0.69015527	0	-0.38690223	0	7.84131089	0	0	2.92069377	0
20.86000000	-3.23184521	181.79234259	-0.26740328	0.98113910	0	-0.66515343	47.88040999	689.68585645	-63.52265439	0.68523228	0	-0.38674724	0	8.16669639	0	0	2.89964964	0
20.87000000	-9.71588987	224.06079266	6.29571468	0.96735582	0	-0.65995641	50.71870026	688.52042750	-63.37728816	0.68009393	0	-0.38665473	0	7.52023575	0	0	2.93138602	0
20.88000000	-15.97850778	261.93517479	14.36273007	0.95268154	0	-0.65385590	53.71518587	685.58422215	-62.82535551	0.67479707	0	-0.38660541	0	6.24502258	0	0	2.96318382	0
20.89000000	-22.10226016	293.14379074	21.75757676	0.94326883	0	-0.65090352	57.13842606	681.34719971	-61.96518967	0.66921464	0	-0.38656822	0	5.00128177	0	0	3.01760334	0
20.90000000	-28.47677548	319.07618728	27.41059507	0.93891416	0	-0.65066750	61.10885968	675.95039881	-60.92518131	0.66329584	0	-0.38652108	0	4.17931543	0	0	3.10411936	0
20.91000000	-35.65626014	343.60837694	32.56877048	0.93776854	0	-0.65180092	65.38625672	669.03535966	-59.86336468	0.65714929	0	-0.38647868	0	3.55805891	0	0	3.18861189	0
20.92000000	-43.47525079	369.82737384	39.24894736	0.93794394	0	-0.65321393	69.67540176	660.03443183	-58.80652396	0.65093949	0	-0.38646654	0	2.65658387	0	0	3.22091471	0
20.93000000	-50.41851264	398.50916739	46.99183476	0.93850390	0	-0.65436806	73.85713050	648.46089589	-57.68938050	0.64476341	0	-0.38650233	0	1.58441867	0	0	3.21745675	0
20.94000000	-55.31604170	428.73352108	53.75399962	0.93849102	0	-0.65504615	77.91268479	633.99899999	-56.26391350	0.63864607	0	-0.38659227	0	0.80878968	0	0	3.16435842	0
20.95000000	-58.15830601	459.11348503	58.94332251	0.93747342	0	-0.65517197	81.55784224	616.51432586	-54.32040570	0.63261969	0	-0.38674558	0	0.40290968	0	0	3.06207544	0
20.96000000	-59.04507327	488.50805154	62.59692885	0.93472004	0	-0.65478915	84.42392621	595.68095442	-51.75306382	0.62671114	0	-0.38699728	0	0.23015948	0	0	3.00534747	0
